<mxfile host="app.diagrams.net" modified="2023-04-07T05:21:29.622Z" agent="Mozilla/5.0 (Windows NT 10.0; Win64; x64) AppleWebKit/537.36 (KHTML, like Gecko) Chrome/111.0.0.0 Safari/537.36" etag="qQ908xdVBER8gsPyGwkP" version="21.1.4" type="device">
  <diagram name="Page-1" id="JjKZ-CXhdH1nh1_p5xSs">
    <mxGraphModel dx="2017" dy="646" grid="1" gridSize="10" guides="1" tooltips="1" connect="1" arrows="1" fold="1" page="1" pageScale="1" pageWidth="850" pageHeight="1100" math="0" shadow="0">
      <root>
        <mxCell id="0" />
        <mxCell id="1" parent="0" />
        <mxCell id="VSfRtED2syqB5lXoM_pr-1" value="" style="rounded=0;whiteSpace=wrap;html=1;align=left;" parent="1" vertex="1">
          <mxGeometry x="240" y="120" width="240" height="200" as="geometry" />
        </mxCell>
        <mxCell id="VSfRtED2syqB5lXoM_pr-3" value="Motor Part Shop" style="text;strokeColor=none;fillColor=none;align=left;verticalAlign=middle;spacingLeft=4;spacingRight=4;overflow=hidden;points=[[0,0.5],[1,0.5]];portConstraint=eastwest;rotatable=0;whiteSpace=wrap;html=1;" parent="1" vertex="1">
          <mxGeometry x="336.25" y="130" width="127.5" height="20" as="geometry" />
        </mxCell>
        <mxCell id="VSfRtED2syqB5lXoM_pr-26" value="" style="rounded=0;whiteSpace=wrap;html=1;" parent="1" vertex="1">
          <mxGeometry x="620" y="540" width="250" height="220" as="geometry" />
        </mxCell>
        <mxCell id="VSfRtED2syqB5lXoM_pr-29" value="" style="rounded=0;whiteSpace=wrap;html=1;" parent="1" vertex="1">
          <mxGeometry x="-60" y="360" width="180" height="150" as="geometry" />
        </mxCell>
        <mxCell id="VSfRtED2syqB5lXoM_pr-30" value="" style="rounded=0;whiteSpace=wrap;html=1;" parent="1" vertex="1">
          <mxGeometry x="230.89" y="540" width="240" height="190" as="geometry" />
        </mxCell>
        <mxCell id="VSfRtED2syqB5lXoM_pr-39" value="" style="endArrow=none;html=1;rounded=0;entryX=1;entryY=0.25;entryDx=0;entryDy=0;exitX=0;exitY=0.25;exitDx=0;exitDy=0;" parent="1" source="VSfRtED2syqB5lXoM_pr-26" target="VSfRtED2syqB5lXoM_pr-26" edge="1">
          <mxGeometry width="50" height="50" relative="1" as="geometry">
            <mxPoint x="650" y="630" as="sourcePoint" />
            <mxPoint x="700" y="580" as="targetPoint" />
          </mxGeometry>
        </mxCell>
        <mxCell id="VSfRtED2syqB5lXoM_pr-41" value="" style="endArrow=none;html=1;rounded=0;entryX=1.005;entryY=0.46;entryDx=0;entryDy=0;entryPerimeter=0;exitX=0.001;exitY=0.46;exitDx=0;exitDy=0;exitPerimeter=0;" parent="1" source="VSfRtED2syqB5lXoM_pr-26" target="VSfRtED2syqB5lXoM_pr-26" edge="1">
          <mxGeometry width="50" height="50" relative="1" as="geometry">
            <mxPoint x="620" y="636" as="sourcePoint" />
            <mxPoint x="820.0000000000001" y="619" as="targetPoint" />
          </mxGeometry>
        </mxCell>
        <mxCell id="VSfRtED2syqB5lXoM_pr-42" value="&lt;div style=&quot;&quot;&gt;+ id: string&lt;/div&gt;&lt;div style=&quot;&quot;&gt;+ sold_items: int&lt;/div&gt;&lt;div style=&quot;&quot;&gt;+ profit: int&lt;/div&gt;" style="text;html=1;strokeColor=none;fillColor=none;align=left;verticalAlign=middle;whiteSpace=wrap;rounded=0;" parent="1" vertex="1">
          <mxGeometry x="640" y="580" width="135" height="70" as="geometry" />
        </mxCell>
        <mxCell id="VSfRtED2syqB5lXoM_pr-43" value="+ Details()&lt;br&gt;+ Login()&lt;br&gt;+ Logout()&lt;br&gt;+ RequestForOrder()&lt;br&gt;+ SellParts()&lt;br&gt;+ RevenueGenerate()&lt;br&gt;+ SoldTo(name, phn, addr, bill)" style="text;html=1;strokeColor=none;fillColor=none;align=left;verticalAlign=middle;whiteSpace=wrap;rounded=0;" parent="1" vertex="1">
          <mxGeometry x="640" y="660" width="200" height="80" as="geometry" />
        </mxCell>
        <mxCell id="VSfRtED2syqB5lXoM_pr-54" value="" style="endArrow=none;html=1;rounded=0;exitX=0.003;exitY=0.292;exitDx=0;exitDy=0;exitPerimeter=0;entryX=1;entryY=0.29;entryDx=0;entryDy=0;entryPerimeter=0;" parent="1" source="VSfRtED2syqB5lXoM_pr-29" target="VSfRtED2syqB5lXoM_pr-29" edge="1">
          <mxGeometry width="50" height="50" relative="1" as="geometry">
            <mxPoint x="-60.00000000000006" y="410" as="sourcePoint" />
            <mxPoint x="114.99999999999994" y="400" as="targetPoint" />
          </mxGeometry>
        </mxCell>
        <mxCell id="VSfRtED2syqB5lXoM_pr-55" value="Stock" style="text;html=1;strokeColor=none;fillColor=none;align=center;verticalAlign=middle;whiteSpace=wrap;rounded=0;" parent="1" vertex="1">
          <mxGeometry x="-35.00000000000006" y="365" width="125" height="35" as="geometry" />
        </mxCell>
        <mxCell id="VSfRtED2syqB5lXoM_pr-56" value="&lt;div style=&quot;&quot;&gt;+ part_no: int&lt;/div&gt;&lt;div style=&quot;&quot;&gt;+ vedor_address: string&lt;/div&gt;&lt;div style=&quot;&quot;&gt;+ amount: int&lt;/div&gt;" style="text;html=1;strokeColor=none;fillColor=none;align=left;verticalAlign=middle;whiteSpace=wrap;rounded=0;" parent="1" vertex="1">
          <mxGeometry x="-60" y="405" width="130" height="50" as="geometry" />
        </mxCell>
        <mxCell id="VSfRtED2syqB5lXoM_pr-57" value="" style="endArrow=none;html=1;rounded=0;entryX=1.002;entryY=0.673;entryDx=0;entryDy=0;entryPerimeter=0;" parent="1" target="VSfRtED2syqB5lXoM_pr-29" edge="1">
          <mxGeometry width="50" height="50" relative="1" as="geometry">
            <mxPoint x="-60.00000000000006" y="460" as="sourcePoint" />
            <mxPoint x="-10.000000000000057" y="410" as="targetPoint" />
          </mxGeometry>
        </mxCell>
        <mxCell id="VSfRtED2syqB5lXoM_pr-58" value="&lt;div style=&quot;&quot;&gt;+ Stock()&lt;/div&gt;&lt;div style=&quot;&quot;&gt;+ stock(amt, id, size, count)&lt;/div&gt;&lt;div style=&quot;&quot;&gt;+ update()&amp;nbsp;&lt;/div&gt;" style="text;html=1;strokeColor=none;fillColor=none;align=left;verticalAlign=middle;whiteSpace=wrap;rounded=0;" parent="1" vertex="1">
          <mxGeometry x="-60" y="465" width="150" height="35" as="geometry" />
        </mxCell>
        <mxCell id="VSfRtED2syqB5lXoM_pr-59" value="Motor Parts" style="text;html=1;strokeColor=none;fillColor=none;align=center;verticalAlign=middle;whiteSpace=wrap;rounded=0;" parent="1" vertex="1">
          <mxGeometry x="304.64" y="550" width="100" height="30" as="geometry" />
        </mxCell>
        <mxCell id="VSfRtED2syqB5lXoM_pr-62" value="" style="endArrow=none;html=1;rounded=0;" parent="1" edge="1">
          <mxGeometry width="50" height="50" relative="1" as="geometry">
            <mxPoint x="230.89" y="580" as="sourcePoint" />
            <mxPoint x="470.89" y="580" as="targetPoint" />
            <Array as="points" />
          </mxGeometry>
        </mxCell>
        <mxCell id="VSfRtED2syqB5lXoM_pr-63" value="+ name: string&lt;br&gt;+ items: int&lt;br&gt;+ vendor: string&lt;br&gt;+ amount: int" style="text;html=1;strokeColor=none;fillColor=none;align=left;verticalAlign=middle;whiteSpace=wrap;rounded=0;" parent="1" vertex="1">
          <mxGeometry x="235.89" y="580" width="130" height="70" as="geometry" />
        </mxCell>
        <mxCell id="KteVbRa-U1Nxcq70W8_H-2" value="&lt;div style=&quot;&quot;&gt;+ username: string&lt;/div&gt;&lt;div style=&quot;&quot;&gt;+ password: string&lt;/div&gt;&lt;div style=&quot;&quot;&gt;+ address: string&lt;/div&gt;&lt;div style=&quot;&quot;&gt;+ amount : int&lt;/div&gt;" style="text;html=1;strokeColor=none;fillColor=none;align=left;verticalAlign=middle;whiteSpace=wrap;rounded=0;" parent="1" vertex="1">
          <mxGeometry x="250.63" y="170" width="223.75" height="60" as="geometry" />
        </mxCell>
        <mxCell id="KteVbRa-U1Nxcq70W8_H-3" value="" style="endArrow=none;html=1;rounded=0;" parent="1" edge="1">
          <mxGeometry width="50" height="50" relative="1" as="geometry">
            <mxPoint x="480" y="160" as="sourcePoint" />
            <mxPoint x="240" y="160" as="targetPoint" />
          </mxGeometry>
        </mxCell>
        <mxCell id="KteVbRa-U1Nxcq70W8_H-4" value="" style="endArrow=none;html=1;rounded=0;" parent="1" edge="1">
          <mxGeometry width="50" height="50" relative="1" as="geometry">
            <mxPoint x="240" y="240" as="sourcePoint" />
            <mxPoint x="480" y="240" as="targetPoint" />
          </mxGeometry>
        </mxCell>
        <mxCell id="KteVbRa-U1Nxcq70W8_H-5" value="+ MotorPartShop()&lt;br&gt;+ ShopNum()&lt;br&gt;+ SellParts()&lt;br&gt;+ BuyParts()" style="text;html=1;strokeColor=none;fillColor=none;align=left;verticalAlign=middle;whiteSpace=wrap;rounded=0;" parent="1" vertex="1">
          <mxGeometry x="251" y="250" width="154" height="60" as="geometry" />
        </mxCell>
        <mxCell id="KteVbRa-U1Nxcq70W8_H-6" value="" style="endArrow=none;html=1;rounded=0;" parent="1" target="KteVbRa-U1Nxcq70W8_H-7" edge="1">
          <mxGeometry width="50" height="50" relative="1" as="geometry">
            <mxPoint x="480" y="200" as="sourcePoint" />
            <mxPoint x="850" y="200" as="targetPoint" />
          </mxGeometry>
        </mxCell>
        <mxCell id="KteVbRa-U1Nxcq70W8_H-30" value="" style="edgeStyle=orthogonalEdgeStyle;rounded=0;orthogonalLoop=1;jettySize=auto;html=1;" parent="1" source="KteVbRa-U1Nxcq70W8_H-7" edge="1">
          <mxGeometry relative="1" as="geometry">
            <mxPoint x="746.12" y="540" as="targetPoint" />
          </mxGeometry>
        </mxCell>
        <mxCell id="KteVbRa-U1Nxcq70W8_H-7" value="" style="whiteSpace=wrap;html=1;aspect=fixed;" parent="1" vertex="1">
          <mxGeometry x="643.12" y="97.5" width="205" height="205" as="geometry" />
        </mxCell>
        <mxCell id="KteVbRa-U1Nxcq70W8_H-8" value="ASSOCIATION" style="text;html=1;strokeColor=none;fillColor=none;align=center;verticalAlign=middle;whiteSpace=wrap;rounded=0;" parent="1" vertex="1">
          <mxGeometry x="540" y="170" width="90" height="30" as="geometry" />
        </mxCell>
        <mxCell id="KteVbRa-U1Nxcq70W8_H-9" value="" style="endArrow=none;html=1;rounded=0;entryX=1;entryY=0.25;entryDx=0;entryDy=0;exitX=0;exitY=0.25;exitDx=0;exitDy=0;" parent="1" source="KteVbRa-U1Nxcq70W8_H-7" target="KteVbRa-U1Nxcq70W8_H-7" edge="1">
          <mxGeometry width="50" height="50" relative="1" as="geometry">
            <mxPoint x="653.12" y="160" as="sourcePoint" />
            <mxPoint x="703.12" y="110" as="targetPoint" />
          </mxGeometry>
        </mxCell>
        <mxCell id="KteVbRa-U1Nxcq70W8_H-10" value="Owner" style="text;html=1;strokeColor=none;fillColor=none;align=center;verticalAlign=middle;whiteSpace=wrap;rounded=0;" parent="1" vertex="1">
          <mxGeometry x="715.62" y="110" width="60" height="30" as="geometry" />
        </mxCell>
        <mxCell id="KteVbRa-U1Nxcq70W8_H-11" value="1" style="text;html=1;strokeColor=none;fillColor=none;align=center;verticalAlign=middle;whiteSpace=wrap;rounded=0;" parent="1" vertex="1">
          <mxGeometry x="680" y="170" width="60" height="30" as="geometry" />
        </mxCell>
        <mxCell id="KteVbRa-U1Nxcq70W8_H-12" value="1..*" style="text;html=1;strokeColor=none;fillColor=none;align=center;verticalAlign=middle;whiteSpace=wrap;rounded=0;" parent="1" vertex="1">
          <mxGeometry x="463.75" y="170" width="60" height="30" as="geometry" />
        </mxCell>
        <mxCell id="KteVbRa-U1Nxcq70W8_H-13" value="&lt;font style=&quot;font-size: 10px;&quot;&gt;+ Owner()&lt;br&gt;+ Owner(req, login, id): Details(SoldTo, size)&lt;/font&gt;" style="text;html=1;strokeColor=none;fillColor=none;align=left;verticalAlign=middle;whiteSpace=wrap;rounded=0;" parent="1" vertex="1">
          <mxGeometry x="643.12" y="220" width="210" height="80" as="geometry" />
        </mxCell>
        <mxCell id="KteVbRa-U1Nxcq70W8_H-14" value="" style="endArrow=none;html=1;rounded=0;entryX=0.997;entryY=0.618;entryDx=0;entryDy=0;entryPerimeter=0;" parent="1" target="KteVbRa-U1Nxcq70W8_H-7" edge="1">
          <mxGeometry width="50" height="50" relative="1" as="geometry">
            <mxPoint x="643.12" y="225" as="sourcePoint" />
            <mxPoint x="853.12" y="220" as="targetPoint" />
          </mxGeometry>
        </mxCell>
        <mxCell id="KteVbRa-U1Nxcq70W8_H-15" value="+ username: string&lt;br&gt;+ password: string&lt;br&gt;+ phone: int&lt;br&gt;+ id: string" style="text;html=1;strokeColor=none;fillColor=none;align=left;verticalAlign=middle;whiteSpace=wrap;rounded=0;" parent="1" vertex="1">
          <mxGeometry x="643.12" y="150" width="130" height="70" as="geometry" />
        </mxCell>
        <mxCell id="KteVbRa-U1Nxcq70W8_H-16" value="" style="endArrow=none;html=1;rounded=0;entryX=0.5;entryY=1;entryDx=0;entryDy=0;exitX=0.5;exitY=0;exitDx=0;exitDy=0;" parent="1" target="KteVbRa-U1Nxcq70W8_H-27" edge="1" source="VSfRtED2syqB5lXoM_pr-30">
          <mxGeometry width="50" height="50" relative="1" as="geometry">
            <mxPoint x="400" y="540" as="sourcePoint" />
            <mxPoint x="400" y="320" as="targetPoint" />
          </mxGeometry>
        </mxCell>
        <mxCell id="KteVbRa-U1Nxcq70W8_H-17" value="" style="endArrow=none;html=1;rounded=0;entryX=1.003;entryY=0.589;entryDx=0;entryDy=0;entryPerimeter=0;exitX=0.001;exitY=0.583;exitDx=0;exitDy=0;exitPerimeter=0;" parent="1" source="VSfRtED2syqB5lXoM_pr-30" target="VSfRtED2syqB5lXoM_pr-30" edge="1">
          <mxGeometry width="50" height="50" relative="1" as="geometry">
            <mxPoint x="260.89" y="660" as="sourcePoint" />
            <mxPoint x="310.89" y="610" as="targetPoint" />
          </mxGeometry>
        </mxCell>
        <mxCell id="KteVbRa-U1Nxcq70W8_H-22" value="+ MotorParts()&lt;br&gt;+ Availabililty()&lt;br&gt;+ size()&lt;br&gt;+ price()&lt;br&gt;+ PartId()" style="text;html=1;strokeColor=none;fillColor=none;align=left;verticalAlign=middle;whiteSpace=wrap;rounded=0;" parent="1" vertex="1">
          <mxGeometry x="237.64" y="660" width="122" height="60" as="geometry" />
        </mxCell>
        <mxCell id="KteVbRa-U1Nxcq70W8_H-23" value="AGGREGATION" style="text;html=1;strokeColor=none;fillColor=none;align=center;verticalAlign=middle;whiteSpace=wrap;rounded=0;rotation=90;" parent="1" vertex="1">
          <mxGeometry x="330" y="425" width="90" height="30" as="geometry" />
        </mxCell>
        <mxCell id="KteVbRa-U1Nxcq70W8_H-24" value="1" style="text;html=1;strokeColor=none;fillColor=none;align=right;verticalAlign=middle;whiteSpace=wrap;rounded=0;" parent="1" vertex="1">
          <mxGeometry x="359.64" y="345" width="20" height="20" as="geometry" />
        </mxCell>
        <mxCell id="KteVbRa-U1Nxcq70W8_H-25" value="0..*" style="text;html=1;strokeColor=none;fillColor=none;align=center;verticalAlign=middle;whiteSpace=wrap;rounded=0;" parent="1" vertex="1">
          <mxGeometry x="345" y="510" width="60" height="30" as="geometry" />
        </mxCell>
        <mxCell id="KteVbRa-U1Nxcq70W8_H-27" value="" style="rhombus;whiteSpace=wrap;html=1;" parent="1" vertex="1">
          <mxGeometry x="338.75" y="320" width="25" height="20" as="geometry" />
        </mxCell>
        <mxCell id="KteVbRa-U1Nxcq70W8_H-32" value="" style="rhombus;whiteSpace=wrap;html=1;strokeColor=#314354;fillColor=#647687;fontColor=#ffffff;" parent="1" vertex="1">
          <mxGeometry x="210" y="185" width="30" height="30" as="geometry" />
        </mxCell>
        <mxCell id="KteVbRa-U1Nxcq70W8_H-35" value="COMPOSITION" style="text;html=1;strokeColor=none;fillColor=none;align=center;verticalAlign=middle;whiteSpace=wrap;rounded=0;" parent="1" vertex="1">
          <mxGeometry x="60" y="170" width="60" height="30" as="geometry" />
        </mxCell>
        <mxCell id="KteVbRa-U1Nxcq70W8_H-36" value="INHERITANCE" style="text;html=1;strokeColor=none;fillColor=none;align=center;verticalAlign=middle;whiteSpace=wrap;rounded=0;rotation=91;" parent="1" vertex="1">
          <mxGeometry x="733.12" y="405" width="60" height="30" as="geometry" />
        </mxCell>
        <mxCell id="KteVbRa-U1Nxcq70W8_H-37" value="Details" style="text;html=1;strokeColor=none;fillColor=none;align=center;verticalAlign=middle;whiteSpace=wrap;rounded=0;" parent="1" vertex="1">
          <mxGeometry x="715.62" y="550" width="60" height="30" as="geometry" />
        </mxCell>
        <mxCell id="7bQYCFi94ek1RNbIlgo6-1" value="" style="endArrow=none;html=1;rounded=0;entryX=0;entryY=0.5;entryDx=0;entryDy=0;" edge="1" parent="1" target="KteVbRa-U1Nxcq70W8_H-32">
          <mxGeometry width="50" height="50" relative="1" as="geometry">
            <mxPoint x="40" y="200" as="sourcePoint" />
            <mxPoint x="115" y="200" as="targetPoint" />
          </mxGeometry>
        </mxCell>
        <mxCell id="7bQYCFi94ek1RNbIlgo6-2" value="" style="endArrow=none;html=1;rounded=0;exitX=0.554;exitY=-0.001;exitDx=0;exitDy=0;exitPerimeter=0;" edge="1" parent="1" source="VSfRtED2syqB5lXoM_pr-29">
          <mxGeometry width="50" height="50" relative="1" as="geometry">
            <mxPoint x="10" y="320" as="sourcePoint" />
            <mxPoint x="40" y="200" as="targetPoint" />
          </mxGeometry>
        </mxCell>
        <mxCell id="7bQYCFi94ek1RNbIlgo6-3" value="&lt;b&gt;&lt;i&gt;&lt;u&gt;{ UML: CLASS DIAGRAM }&lt;/u&gt;&lt;/i&gt;&lt;/b&gt;" style="text;html=1;strokeColor=none;fillColor=none;align=center;verticalAlign=middle;whiteSpace=wrap;rounded=0;" vertex="1" parent="1">
          <mxGeometry x="311.89" y="20" width="159" height="30" as="geometry" />
        </mxCell>
      </root>
    </mxGraphModel>
  </diagram>
</mxfile>
